# xmcd
#
# Track frame offsets:
#	150
#	18587
#	33559
#	51649
#	67541
#	83164
#	97837
#	115046
#	129642
#	145781
#	161860
#	181525
#
# Disc length: 2706 seconds
#
# Revision: 4
# Processed by: cddbd v1.4b41PL2 Copyright (c) Steve Scherf et al.
# Submitted via: audiograbber 1.80
#
DISCID=960a900c
DTITLE=Lonestar - Lonely Grill
DYEAR=1900
DGENRE=
TTITLE0=Saturday Night
TTITLE1=Simple As That
TTITLE2=Amazed
TTITLE3=What About Now
TTITLE4=Tell Her
TTITLE5=Don't Lets Talk About Lisa
TTITLE6=I've Gotta Find You
TTITLE7=You Don't Know What Love Is
TTITLE8=All The Way
TTITLE9=Smile
TTITLE10=Lonely Grill
TTITLE11=Everything's Changed (Acoustic Version)
EXTD=
EXTT0=
EXTT1=
EXTT2=
EXTT3=
EXTT4=
EXTT5=
EXTT6=
EXTT7=
EXTT8=
EXTT9=
EXTT10=
EXTT11=
PLAYORDER=
